<?xml version="1.0" encoding="UTF-8" standalone="no"?><svg xmlns="http://www.w3.org/2000/svg" xmlns:xlink="http://www.w3.org/1999/xlink" contentScriptType="application/ecmascript" contentStyleType="text/css" height="383px" preserveAspectRatio="none" style="width:721px;height:383px;" version="1.1" viewBox="0 0 721 383" width="721px" zoomAndPan="magnify"><defs><filter height="300%" id="fn2os740vtr10" width="300%" x="-1" y="-1"><feGaussianBlur result="blurOut" stdDeviation="2.0"/><feColorMatrix in="blurOut" result="blurOut2" type="matrix" values="0 0 0 0 0 0 0 0 0 0 0 0 0 0 0 0 0 0 .4 0"/><feOffset dx="4.0" dy="4.0" in="blurOut2" result="blurOut3"/><feBlend in="SourceGraphic" in2="blurOut3" mode="normal"/></filter></defs><g><rect fill="#FFFFFF" filter="url(#fn2os740vtr10)" height="190.9297" style="stroke: #A80036; stroke-width: 1.0;" width="10" x="228.5" y="96.2969"/><rect fill="#FFFFFF" filter="url(#fn2os740vtr10)" height="87.3984" style="stroke: #A80036; stroke-width: 1.0;" width="10" x="384.5" y="161.5625"/><line style="stroke: #A80036; stroke-width: 1.0; stroke-dasharray: 5.0,5.0;" x1="26" x2="26" y1="86.2969" y2="296.2266"/><line style="stroke: #A80036; stroke-width: 1.0; stroke-dasharray: 5.0,5.0;" x1="233" x2="233" y1="86.2969" y2="296.2266"/><line style="stroke: #A80036; stroke-width: 1.0; stroke-dasharray: 5.0,5.0;" x1="389" x2="389" y1="86.2969" y2="296.2266"/><line style="stroke: #A80036; stroke-width: 1.0; stroke-dasharray: 5.0,5.0;" x1="544" x2="544" y1="86.2969" y2="296.2266"/><line style="stroke: #A80036; stroke-width: 1.0; stroke-dasharray: 5.0,5.0;" x1="652" x2="652" y1="86.2969" y2="296.2266"/><text fill="#000000" font-family="sans-serif" font-size="14" lengthAdjust="spacingAndGlyphs" textLength="31" x="8" y="82.9951">user</text><ellipse cx="26.5" cy="13" fill="#FEFECE" filter="url(#fn2os740vtr10)" rx="8" ry="8" style="stroke: #A80036; stroke-width: 2.0;"/><path d="M26.5,21 L26.5,48 M13.5,29 L39.5,29 M26.5,48 L13.5,63 M26.5,48 L39.5,63 " fill="#FEFECE" filter="url(#fn2os740vtr10)" style="stroke: #A80036; stroke-width: 2.0;"/><text fill="#000000" font-family="sans-serif" font-size="14" lengthAdjust="spacingAndGlyphs" textLength="31" x="8" y="308.2217">user</text><ellipse cx="26.5" cy="321.5234" fill="#FEFECE" filter="url(#fn2os740vtr10)" rx="8" ry="8" style="stroke: #A80036; stroke-width: 2.0;"/><path d="M26.5,329.5234 L26.5,356.5234 M13.5,337.5234 L39.5,337.5234 M26.5,356.5234 L13.5,371.5234 M26.5,356.5234 L39.5,371.5234 " fill="#FEFECE" filter="url(#fn2os740vtr10)" style="stroke: #A80036; stroke-width: 2.0;"/><text fill="#000000" font-family="sans-serif" font-size="14" lengthAdjust="spacingAndGlyphs" textLength="99" x="181" y="82.9951">github_master</text><path d="M215.5,34 C215.5,24 233.5,24 233.5,24 C233.5,24 251.5,24 251.5,34 L251.5,60 C251.5,70 233.5,70 233.5,70 C233.5,70 215.5,70 215.5,60 L215.5,34 " fill="#FEFECE" filter="url(#fn2os740vtr10)" style="stroke: #000000; stroke-width: 1.5;"/><path d="M215.5,34 C215.5,44 233.5,44 233.5,44 C233.5,44 251.5,44 251.5,34 " fill="none" style="stroke: #000000; stroke-width: 1.5;"/><text fill="#000000" font-family="sans-serif" font-size="14" lengthAdjust="spacingAndGlyphs" textLength="99" x="181" y="308.2217">github_master</text><path d="M215.5,321.5234 C215.5,311.5234 233.5,311.5234 233.5,311.5234 C233.5,311.5234 251.5,311.5234 251.5,321.5234 L251.5,347.5234 C251.5,357.5234 233.5,357.5234 233.5,357.5234 C233.5,357.5234 215.5,357.5234 215.5,347.5234 L215.5,321.5234 " fill="#FEFECE" filter="url(#fn2os740vtr10)" style="stroke: #000000; stroke-width: 1.5;"/><path d="M215.5,321.5234 C215.5,331.5234 233.5,331.5234 233.5,331.5234 C233.5,331.5234 251.5,331.5234 251.5,321.5234 " fill="none" style="stroke: #000000; stroke-width: 1.5;"/><text fill="#000000" font-family="sans-serif" font-size="14" lengthAdjust="spacingAndGlyphs" textLength="155" x="309" y="82.9951">github_feature_branch</text><path d="M371.5,34 C371.5,24 389.5,24 389.5,24 C389.5,24 407.5,24 407.5,34 L407.5,60 C407.5,70 389.5,70 389.5,70 C389.5,70 371.5,70 371.5,60 L371.5,34 " fill="#FEFECE" filter="url(#fn2os740vtr10)" style="stroke: #000000; stroke-width: 1.5;"/><path d="M371.5,34 C371.5,44 389.5,44 389.5,44 C389.5,44 407.5,44 407.5,34 " fill="none" style="stroke: #000000; stroke-width: 1.5;"/><text fill="#000000" font-family="sans-serif" font-size="14" lengthAdjust="spacingAndGlyphs" textLength="155" x="309" y="308.2217">github_feature_branch</text><path d="M371.5,321.5234 C371.5,311.5234 389.5,311.5234 389.5,311.5234 C389.5,311.5234 407.5,311.5234 407.5,321.5234 L407.5,347.5234 C407.5,357.5234 389.5,357.5234 389.5,357.5234 C389.5,357.5234 371.5,357.5234 371.5,347.5234 L371.5,321.5234 " fill="#FEFECE" filter="url(#fn2os740vtr10)" style="stroke: #000000; stroke-width: 1.5;"/><path d="M371.5,321.5234 C371.5,331.5234 389.5,331.5234 389.5,331.5234 C389.5,331.5234 407.5,331.5234 407.5,321.5234 " fill="none" style="stroke: #000000; stroke-width: 1.5;"/><rect fill="#FEFECE" filter="url(#fn2os740vtr10)" height="30.2969" style="stroke: #A80036; stroke-width: 1.5;" width="63" x="513" y="47"/><rect fill="#FEFECE" filter="url(#fn2os740vtr10)" height="30.2969" style="stroke: #A80036; stroke-width: 1.5;" width="63" x="509" y="51"/><text fill="#000000" font-family="sans-serif" font-size="14" lengthAdjust="spacingAndGlyphs" textLength="49" x="516" y="70.9951">heroku</text><rect fill="#FEFECE" filter="url(#fn2os740vtr10)" height="30.2969" style="stroke: #A80036; stroke-width: 1.5;" width="63" x="513" y="295.2266"/><rect fill="#FEFECE" filter="url(#fn2os740vtr10)" height="30.2969" style="stroke: #A80036; stroke-width: 1.5;" width="63" x="509" y="299.2266"/><text fill="#000000" font-family="sans-serif" font-size="14" lengthAdjust="spacingAndGlyphs" textLength="49" x="516" y="319.2217">heroku</text><text fill="#000000" font-family="sans-serif" font-size="14" lengthAdjust="spacingAndGlyphs" textLength="119" x="590" y="82.9951">github_gh_pages</text><path d="M634.5,34 C634.5,24 652.5,24 652.5,24 C652.5,24 670.5,24 670.5,34 L670.5,60 C670.5,70 652.5,70 652.5,70 C652.5,70 634.5,70 634.5,60 L634.5,34 " fill="#FEFECE" filter="url(#fn2os740vtr10)" style="stroke: #000000; stroke-width: 1.5;"/><path d="M634.5,34 C634.5,44 652.5,44 652.5,44 C652.5,44 670.5,44 670.5,34 " fill="none" style="stroke: #000000; stroke-width: 1.5;"/><text fill="#000000" font-family="sans-serif" font-size="14" lengthAdjust="spacingAndGlyphs" textLength="119" x="590" y="308.2217">github_gh_pages</text><path d="M634.5,321.5234 C634.5,311.5234 652.5,311.5234 652.5,311.5234 C652.5,311.5234 670.5,311.5234 670.5,321.5234 L670.5,347.5234 C670.5,357.5234 652.5,357.5234 652.5,357.5234 C652.5,357.5234 634.5,357.5234 634.5,347.5234 L634.5,321.5234 " fill="#FEFECE" filter="url(#fn2os740vtr10)" style="stroke: #000000; stroke-width: 1.5;"/><path d="M634.5,321.5234 C634.5,331.5234 652.5,331.5234 652.5,331.5234 C652.5,331.5234 670.5,331.5234 670.5,321.5234 " fill="none" style="stroke: #000000; stroke-width: 1.5;"/><rect fill="#FFFFFF" filter="url(#fn2os740vtr10)" height="190.9297" style="stroke: #A80036; stroke-width: 1.0;" width="10" x="228.5" y="96.2969"/><rect fill="#FFFFFF" filter="url(#fn2os740vtr10)" height="87.3984" style="stroke: #A80036; stroke-width: 1.0;" width="10" x="384.5" y="161.5625"/><polygon fill="#A80036" points="216.5,128.2969,226.5,132.2969,216.5,136.2969,220.5,132.2969" style="stroke: #A80036; stroke-width: 1.0;"/><line style="stroke: #A80036; stroke-width: 1.0;" x1="26.5" x2="222.5" y1="132.2969" y2="132.2969"/><text fill="#000000" font-family="sans-serif" font-size="13" lengthAdjust="spacingAndGlyphs" textLength="70" x="33.5" y="112.3638">create new</text><text fill="#000000" font-family="sans-serif" font-size="13" lengthAdjust="spacingAndGlyphs" textLength="178" x="33.5" y="127.4966">feature branch from master</text><polygon fill="#A80036" points="372.5,157.5625,382.5,161.5625,372.5,165.5625,376.5,161.5625" style="stroke: #A80036; stroke-width: 1.0;"/><line style="stroke: #A80036; stroke-width: 1.0;" x1="238.5" x2="378.5" y1="161.5625" y2="161.5625"/><text fill="#000000" font-family="sans-serif" font-size="13" lengthAdjust="spacingAndGlyphs" textLength="127" x="245.5" y="156.6294">new Feature Branch</text><polygon fill="#A80036" points="372.5,186.6953,382.5,190.6953,372.5,194.6953,376.5,190.6953" style="stroke: #A80036; stroke-width: 1.0;"/><line style="stroke: #A80036; stroke-width: 1.0;" x1="26.5" x2="378.5" y1="190.6953" y2="190.6953"/><text fill="#000000" font-family="sans-serif" font-size="13" lengthAdjust="spacingAndGlyphs" textLength="107" x="33.5" y="185.7622">commit changes</text><polygon fill="#A80036" points="532.5,215.8281,542.5,219.8281,532.5,223.8281,536.5,219.8281" style="stroke: #A80036; stroke-width: 1.0;"/><line style="stroke: #A80036; stroke-width: 1.0;" x1="394.5" x2="538.5" y1="219.8281" y2="219.8281"/><text fill="#000000" font-family="sans-serif" font-size="13" lengthAdjust="spacingAndGlyphs" textLength="126" x="401.5" y="214.895">deploy to dev stage</text><polygon fill="#A80036" points="249.5,244.9609,239.5,248.9609,249.5,252.9609,245.5,248.9609" style="stroke: #A80036; stroke-width: 1.0;"/><line style="stroke: #A80036; stroke-width: 1.0;" x1="243.5" x2="388.5" y1="248.9609" y2="248.9609"/><text fill="#000000" font-family="sans-serif" font-size="13" lengthAdjust="spacingAndGlyphs" textLength="121" x="255.5" y="244.0278">reintegrate feature</text><polygon fill="#A80036" points="640.5,274.0938,650.5,278.0938,640.5,282.0938,644.5,278.0938" style="stroke: #A80036; stroke-width: 1.0;"/><line style="stroke: #A80036; stroke-width: 1.0;" x1="238.5" x2="646.5" y1="278.0938" y2="278.0938"/><text fill="#000000" font-family="sans-serif" font-size="13" lengthAdjust="spacingAndGlyphs" textLength="171" x="245.5" y="273.1606">deploy to production stage</text><!--
@startuml


actor user
database github_master
database github_feature_branch
collections heroku
database github_gh_pages

activate github_master
user -> github_master : create new\nfeature branch from master
github_master -> github_feature_branch: new Feature Branch
activate github_feature_branch
user -> github_feature_branch : commit changes
github_feature_branch -> heroku : deploy to dev stage
github_feature_branch -> github_master: reintegrate feature
deactivate github_feature_branch
github_master -> github_gh_pages : deploy to production stage


@enduml

PlantUML version 1.2017.15(Mon Jul 03 16:45:34 UTC 2017)
(GPL source distribution)
Java Runtime: OpenJDK Runtime Environment
JVM: OpenJDK 64-Bit Server VM
Java Version: 1.8.0_141-8u141-b15-3~14.04-b15
Operating System: Linux
OS Version: 4.4.0-93-generic
Default Encoding: UTF-8
Language: en
Country: US
--></g></svg>