<?xml version="1.0" encoding="UTF-8" standalone="no"?><svg xmlns="http://www.w3.org/2000/svg" xmlns:xlink="http://www.w3.org/1999/xlink" contentScriptType="application/ecmascript" contentStyleType="text/css" height="1133px" preserveAspectRatio="none" style="width:1349px;height:1133px;" version="1.1" viewBox="0 0 1349 1133" width="1349px" zoomAndPan="magnify"><defs><filter height="300%" id="f13kdpacv7osig" width="300%" x="-1" y="-1"><feGaussianBlur result="blurOut" stdDeviation="2.0"/><feColorMatrix in="blurOut" result="blurOut2" type="matrix" values="0 0 0 0 0 0 0 0 0 0 0 0 0 0 0 0 0 0 .4 0"/><feOffset dx="4.0" dy="4.0" in="blurOut2" result="blurOut3"/><feBlend in="SourceGraphic" in2="blurOut3" mode="normal"/></filter></defs><g><!--cluster Travis-ci.org--><polygon fill="#FFFFFF" filter="url(#f13kdpacv7osig)" points="22,222,127,222,134,244.2969,1128,244.2969,1128,822,22,822,22,222" style="stroke: #000000; stroke-width: 2.0;"/><line style="stroke: #000000; stroke-width: 2.0;" x1="22" x2="134" y1="244.2969" y2="244.2969"/><text fill="#000000" font-family="sans-serif" font-size="14" font-weight="bold" lengthAdjust="spacingAndGlyphs" textLength="99" x="26" y="236.9951">Travis-ci.org</text><!--cluster Configure external Services--><polygon fill="#FFFFFF" filter="url(#f13kdpacv7osig)" points="46,420,273,420,280,442.2969,806,442.2969,806,798,46,798,46,420" style="stroke: #000000; stroke-width: 2.0;"/><line style="stroke: #000000; stroke-width: 2.0;" x1="46" x2="280" y1="442.2969" y2="442.2969"/><text fill="#000000" font-family="sans-serif" font-size="14" font-weight="bold" lengthAdjust="spacingAndGlyphs" textLength="221" x="50" y="434.9951">Configure external Services</text><rect fill="#FEFECE" filter="url(#f13kdpacv7osig)" height="33.9688" rx="12.5" ry="12.5" style="stroke: #A80036; stroke-width: 1.5;" width="145" x="732.75" y="258"/><text fill="#000000" font-family="sans-serif" font-size="12" lengthAdjust="spacingAndGlyphs" textLength="59" x="742.75" y="279.1387">configure</text><text fill="#000000" font-family="sans-serif" font-size="12" font-style="italic" lengthAdjust="spacingAndGlyphs" textLength="62" x="805.75" y="279.1387">.travis.yml</text><polygon fill="#FEFECE" filter="url(#f13kdpacv7osig)" points="658,339,670,351,658,363,646,351,658,339" style="stroke: #A80036; stroke-width: 1.5;"/><rect fill="#FEFECE" filter="url(#f13kdpacv7osig)" height="33.9688" rx="12.5" ry="12.5" style="stroke: #A80036; stroke-width: 1.5;" width="178" x="920.5" y="748"/><text fill="#000000" font-family="sans-serif" font-size="12" font-weight="bold" lengthAdjust="spacingAndGlyphs" textLength="158" x="930.5" y="769.1387">Build process defined!</text><rect fill="#FEFECE" filter="url(#f13kdpacv7osig)" height="33.9688" rx="12.5" ry="12.5" style="stroke: #A80036; stroke-width: 1.5;" width="163" x="885.75" y="334"/><text fill="#000000" font-family="sans-serif" font-size="12" lengthAdjust="spacingAndGlyphs" textLength="143" x="895.75" y="355.1387">only generate the blog</text><rect fill="#FEFECE" filter="url(#f13kdpacv7osig)" height="33.9688" rx="12.5" ry="12.5" style="stroke: #A80036; stroke-width: 1.5;" width="291" x="821.75" y="456"/><text fill="#000000" font-family="sans-serif" font-size="12" lengthAdjust="spacingAndGlyphs" textLength="205" x="831.75" y="477.1387">remove the stage structure from</text><text fill="#000000" font-family="sans-serif" font-size="12" font-style="italic" lengthAdjust="spacingAndGlyphs" textLength="62" x="1040.75" y="477.1387">.travis.yml</text><rect fill="#FEFECE" filter="url(#f13kdpacv7osig)" height="33.9688" rx="12.5" ry="12.5" style="stroke: #A80036; stroke-width: 1.5;" width="214" x="463.5" y="456"/><text fill="#000000" font-family="sans-serif" font-size="12" lengthAdjust="spacingAndGlyphs" textLength="194" x="473.5" y="477.1387">with deployment to docker etc.</text><rect fill="#000000" filter="url(#f13kdpacv7osig)" height="8" style="stroke: none; stroke-width: 1.0;" width="80" x="458" y="532"/><rect fill="#FEFECE" filter="url(#f13kdpacv7osig)" height="33.9688" rx="12.5" ry="12.5" style="stroke: #A80036; stroke-width: 1.5;" width="277" x="62.75" y="589"/><text fill="#000000" font-family="sans-serif" font-size="12" lengthAdjust="spacingAndGlyphs" textLength="257" x="72.75" y="610.1387">prepare heroku create a new application</text><rect fill="#000000" filter="url(#f13kdpacv7osig)" height="8" style="stroke: none; stroke-width: 1.0;" width="80" x="416" y="685"/><rect fill="#FEFECE" filter="url(#f13kdpacv7osig)" height="47.9375" rx="12.5" ry="12.5" style="stroke: #A80036; stroke-width: 1.5;" width="192" x="360" y="582"/><text fill="#000000" font-family="sans-serif" font-size="12" lengthAdjust="spacingAndGlyphs" textLength="172" x="370" y="603.1387">prepare hub.docker.com to</text><text fill="#000000" font-family="sans-serif" font-size="12" lengthAdjust="spacingAndGlyphs" textLength="149" x="381.5" y="617.1074">create a new repository</text><rect fill="#FEFECE" filter="url(#f13kdpacv7osig)" height="33.9688" rx="12.5" ry="12.5" style="stroke: #A80036; stroke-width: 1.5;" width="218" x="572" y="589"/><text fill="#000000" font-family="sans-serif" font-size="12" lengthAdjust="spacingAndGlyphs" textLength="198" x="582" y="610.1387">Configure slack for notifications</text><rect fill="#FEFECE" filter="url(#f13kdpacv7osig)" height="33.9688" rx="12.5" ry="12.5" style="stroke: #A80036; stroke-width: 1.5;" width="139" x="386.75" y="748"/><text fill="#000000" font-family="sans-serif" font-size="12" lengthAdjust="spacingAndGlyphs" textLength="119" x="396.75" y="769.1387">set travisci secrets</text><ellipse cx="1092" cy="18" fill="#000000" filter="url(#f13kdpacv7osig)" rx="10" ry="10" style="stroke: none; stroke-width: 1.0;"/><rect fill="#FEFECE" filter="url(#f13kdpacv7osig)" height="33.9688" rx="12.5" ry="12.5" style="stroke: #A80036; stroke-width: 1.5;" width="158" x="1013.5" y="70"/><text fill="#000000" font-family="sans-serif" font-size="12" lengthAdjust="spacingAndGlyphs" textLength="138" x="1023.5" y="91.1387">Check What You Need</text><polygon fill="#FEFECE" filter="url(#f13kdpacv7osig)" points="1092,146,1104,158,1092,170,1080,158,1092,146" style="stroke: #A80036; stroke-width: 1.5;"/><rect fill="#FEFECE" filter="url(#f13kdpacv7osig)" height="33.9688" rx="12.5" ry="12.5" style="stroke: #A80036; stroke-width: 1.5;" width="194" x="1144.5" y="672"/><text fill="#000000" font-family="sans-serif" font-size="12" lengthAdjust="spacingAndGlyphs" textLength="174" x="1154.5" y="693.1387">remove travisci specific files</text><rect fill="#FEFECE" filter="url(#f13kdpacv7osig)" height="33.9688" rx="12.5" ry="12.5" style="stroke: #A80036; stroke-width: 1.5;" width="172" x="923" y="860"/><text fill="#000000" font-family="sans-serif" font-size="12" lengthAdjust="spacingAndGlyphs" textLength="79" x="933" y="881.1387">update jekyll</text><text fill="#000000" font-family="sans-serif" font-size="12" font-style="italic" lengthAdjust="spacingAndGlyphs" textLength="69" x="1016" y="881.1387">_config.yml</text><rect fill="#FEFECE" filter="url(#f13kdpacv7osig)" height="33.9688" rx="12.5" ry="12.5" style="stroke: #A80036; stroke-width: 1.5;" width="258" x="880" y="936"/><text fill="#000000" font-family="sans-serif" font-size="12" lengthAdjust="spacingAndGlyphs" textLength="116" x="890" y="957.1387">Start the blog with</text><text fill="#000000" font-family="sans-serif" font-size="12" font-weight="bold" lengthAdjust="spacingAndGlyphs" textLength="118" x="1010" y="957.1387">Docker Compose</text><rect fill="#FEFECE" filter="url(#f13kdpacv7osig)" height="33.9688" rx="12.5" ry="12.5" style="stroke: #A80036; stroke-width: 1.5;" width="123" x="947.75" y="1012"/><text fill="#000000" font-family="sans-serif" font-size="12" lengthAdjust="spacingAndGlyphs" textLength="103" x="957.75" y="1033.1387">commit changes</text><ellipse cx="1009" cy="1112" fill="none" filter="url(#f13kdpacv7osig)" rx="10" ry="10" style="stroke: #000000; stroke-width: 1.0;"/><ellipse cx="1009.5" cy="1112.5" fill="#000000" rx="6" ry="6" style="stroke: none; stroke-width: 1.0;"/><!--link start to Check What You Need--><path d="M1092,28.04 C1092,37.41 1092,52.41 1092,64.8 " fill="none" id="start-Check What You Need" style="stroke: #A80036; stroke-width: 1.0;"/><polygon fill="#A80036" points="1092,69.93,1096,60.93,1092,64.93,1088,60.93,1092,69.93" style="stroke: #A80036; stroke-width: 1.0;"/><!--link Check What You Need to #5--><path d="M1092,104 C1092,114.95 1092,129.428 1092,140.484 " fill="none" id="Check What You Need-#5" style="stroke: #A80036; stroke-width: 1.0;"/><polygon fill="#A80036" points="1092,145.606,1096,136.606,1092,140.606,1088,136.606,1092,145.606" style="stroke: #A80036; stroke-width: 1.0;"/><text fill="#000000" font-family="sans-serif" font-size="11" lengthAdjust="spacingAndGlyphs" textLength="119" x="952.7156" y="136.7629">need automatic build</text><!--link #5 to configure <i>.travis.yml</i>--><path d="M1084.02,162.196 C1050.56,175.604 919.991,227.924 849.963,255.983 " fill="none" id="#5-configure &lt;i&gt;.travis.yml&lt;/i&gt;" style="stroke: #A80036; stroke-width: 1.0;"/><polygon fill="#A80036" points="845.028,257.961,854.87,258.3277,849.6695,256.1018,851.8954,250.9013,845.028,257.961" style="stroke: #A80036; stroke-width: 1.0;"/><text fill="#000000" font-family="sans-serif" font-size="11" lengthAdjust="spacingAndGlyphs" textLength="23" x="1009" y="201.7104">true</text><!--link configure <i>.travis.yml</i> to #11--><path d="M773.103,292.057 C740.76,308.339 692.39,332.688 670.074,343.922 " fill="none" id="configure &lt;i&gt;.travis.yml&lt;/i&gt;-#11" style="stroke: #A80036; stroke-width: 1.0;"/><polygon fill="#A80036" points="665.476,346.237,675.3134,345.7621,669.9418,343.9884,671.7156,338.6168,665.476,346.237" style="stroke: #A80036; stroke-width: 1.0;"/><text fill="#000000" font-family="sans-serif" font-size="11" lengthAdjust="spacingAndGlyphs" textLength="110" x="678.3617" y="356.7856">need complex build</text><!--link #11 to with deployment to docker etc.--><path d="M653.269,358.452 C640.595,375.734 605.464,423.641 585.111,451.394 " fill="none" id="#11-with deployment to docker etc." style="stroke: #A80036; stroke-width: 1.0;"/><polygon fill="#A80036" points="581.977,455.668,590.5247,450.7754,584.9336,451.6358,584.0732,446.0448,581.977,455.668" style="stroke: #A80036; stroke-width: 1.0;"/><text fill="#000000" font-family="sans-serif" font-size="11" lengthAdjust="spacingAndGlyphs" textLength="23" x="631" y="399.7104">true</text><!--link with deployment to docker etc. to B1--><path d="M543.751,490.002 C535.139,495.806 525.787,502.734 518,510 C512.275,515.342 506.794,522.375 503.023,527.621 " fill="none" id="with deployment to docker etc.-B1" style="stroke: #A80036; stroke-width: 1.0;"/><polygon fill="#A80036" points="500.082,531.835,508.5129,526.7439,502.9436,527.7348,501.9527,522.1654,500.082,531.835" style="stroke: #A80036; stroke-width: 1.0;"/><!--link B1 to prepare heroku create a new application--><path d="M484.855,540.01 C449.006,548.218 347.454,571.468 276.103,587.805 " fill="none" id="B1-prepare heroku create a new application" style="stroke: #A80036; stroke-width: 1.0;"/><polygon fill="#A80036" points="271.019,588.969,280.6851,590.8573,275.8926,587.852,278.8979,583.0595,271.019,588.969" style="stroke: #A80036; stroke-width: 1.0;"/><!--link prepare heroku create a new application to B2--><path d="M251.38,623.003 C310.59,641.811 405.345,671.909 441.416,683.367 " fill="none" id="prepare heroku create a new application-B2" style="stroke: #A80036; stroke-width: 1.0;"/><polygon fill="#A80036" points="446.301,684.919,438.9349,678.3814,441.5358,683.4049,436.5123,686.0057,446.301,684.919" style="stroke: #A80036; stroke-width: 1.0;"/><!--link B1 to prepare hub.docker.com to\ncreate a new repository--><path d="M495.974,540.28 C491.816,547.012 481.961,562.968 473.077,577.351 " fill="none" id="B1-prepare hub.docker.com to\ncreate a new repository" style="stroke: #A80036; stroke-width: 1.0;"/><polygon fill="#A80036" points="470.359,581.753,478.4912,576.1971,472.9861,577.4988,471.6844,571.9937,470.359,581.753" style="stroke: #A80036; stroke-width: 1.0;"/><!--link prepare hub.docker.com to\ncreate a new repository to B2--><path d="M456,630.429 C456,646.98 456,668.188 456,679.686 " fill="none" id="prepare hub.docker.com to\ncreate a new repository-B2" style="stroke: #A80036; stroke-width: 1.0;"/><polygon fill="#A80036" points="456,684.737,460,675.737,456,679.737,452,675.737,456,684.737" style="stroke: #A80036; stroke-width: 1.0;"/><!--link B1 to Configure slack for notifications--><path d="M506.339,540.099 C528.332,548.271 589.221,570.896 632.916,587.133 " fill="none" id="B1-Configure slack for notifications" style="stroke: #A80036; stroke-width: 1.0;"/><polygon fill="#A80036" points="637.621,588.881,630.5776,581.997,632.934,587.1396,627.7914,589.4961,637.621,588.881" style="stroke: #A80036; stroke-width: 1.0;"/><!--link Configure slack for notifications to B2--><path d="M635.98,623.111 C599.348,636.234 546.316,655.262 500,672 C489.745,675.706 478.154,679.922 469.445,683.095 " fill="none" id="Configure slack for notifications-B2" style="stroke: #A80036; stroke-width: 1.0;"/><polygon fill="#A80036" points="464.431,684.923,474.2565,685.6002,469.1289,683.2113,471.5178,678.0836,464.431,684.923" style="stroke: #A80036; stroke-width: 1.0;"/><!--link B2 to set travisci secrets--><path d="M456,693.18 C456,701.603 456,725.057 456,742.683 " fill="none" id="B2-set travisci secrets" style="stroke: #A80036; stroke-width: 1.0;"/><polygon fill="#A80036" points="456,747.943,460,738.943,456,742.943,452,738.943,456,747.943" style="stroke: #A80036; stroke-width: 1.0;"/><!--link set travisci secrets to <b>Build process defined!</b>--><path d="M525.395,765 C655.33,765 785.266,765 915.201,765 " fill="none" id="set travisci secrets-&lt;b&gt;Build process defined!&lt;/b&gt;" style="stroke: #A80036; stroke-width: 1.0;"/><polygon fill="#A80036" points="920.213,765,911.213,761,915.213,765,911.213,769,920.213,765" style="stroke: #A80036; stroke-width: 1.0;"/><!--link #11 to only generate the blog--><path d="M670.113,351 C704.601,351 805.643,351 880.316,351 " fill="none" id="#11-only generate the blog" style="stroke: #A80036; stroke-width: 1.0;"/><polygon fill="#A80036" points="885.646,351,876.646,347,880.646,351,876.646,355,885.646,351" style="stroke: #A80036; stroke-width: 1.0;"/><text fill="#000000" font-family="sans-serif" font-size="11" lengthAdjust="spacingAndGlyphs" textLength="28" x="763.25" y="344.2104">false</text><!--link only generate the blog to remove the stage structure from <i>.travis.yml</i>--><path d="M967,368.184 C967,389.476 967,426.956 967,450.58 " fill="none" id="only generate the blog-remove the stage structure from &lt;i&gt;.travis.yml&lt;/i&gt;" style="stroke: #A80036; stroke-width: 1.0;"/><polygon fill="#A80036" points="967,455.689,971,446.689,967,450.689,963,446.689,967,455.689" style="stroke: #A80036; stroke-width: 1.0;"/><!--link remove the stage structure from <i>.travis.yml</i> to <b>Build process defined!</b>--><path d="M972.775,490.081 C976.632,502.249 981,519.462 981,535 C981,535 981,535 981,690 C981,708.882 989.073,728.822 996.549,743.24 " fill="none" id="remove the stage structure from &lt;i&gt;.travis.yml&lt;/i&gt;-&lt;b&gt;Build process defined!&lt;/b&gt;" style="stroke: #A80036; stroke-width: 1.0;"/><polygon fill="#A80036" points="999.049,747.908,998.3255,738.0858,996.6881,743.5005,991.2734,741.8631,999.049,747.908" style="stroke: #A80036; stroke-width: 1.0;"/><!--link #5 to remove travisci specific files--><path d="M1099.91,162.496 C1125.13,174.239 1202,214.876 1202,274 C1202,274 1202,274 1202,607 C1202,629.256 1214.1,651.849 1224.82,667.499 " fill="none" id="#5-remove travisci specific files" style="stroke: #A80036; stroke-width: 1.0;"/><polygon fill="#A80036" points="1227.8,671.723,1225.8841,662.0623,1224.9193,667.6363,1219.3453,666.6714,1227.8,671.723" style="stroke: #A80036; stroke-width: 1.0;"/><text fill="#000000" font-family="sans-serif" font-size="11" lengthAdjust="spacingAndGlyphs" textLength="28" x="1203" y="476.7104">false</text><!--link remove travisci specific files to <b>Build process defined!</b>--><path d="M1190.66,706.057 C1153.42,717.936 1102.71,734.109 1064.33,746.35 " fill="none" id="remove travisci specific files-&lt;b&gt;Build process defined!&lt;/b&gt;" style="stroke: #A80036; stroke-width: 1.0;"/><polygon fill="#A80036" points="1059.24,747.974,1069.0318,749.0324,1064.0008,746.4461,1066.5872,741.4151,1059.24,747.974" style="stroke: #A80036; stroke-width: 1.0;"/><!--link <b>Build process defined!</b> to update jekyll <i>_config.yml</i>--><path d="M1009,782.231 C1009,801.403 1009,833.364 1009,854.56 " fill="none" id="&lt;b&gt;Build process defined!&lt;/b&gt;-update jekyll &lt;i&gt;_config.yml&lt;/i&gt;" style="stroke: #A80036; stroke-width: 1.0;"/><polygon fill="#A80036" points="1009,859.703,1013,850.703,1009,854.703,1005,850.703,1009,859.703" style="stroke: #A80036; stroke-width: 1.0;"/><!--link update jekyll <i>_config.yml</i> to Start the blog with <b>Docker Compose</b>--><path d="M1009,894.057 C1009,904.821 1009,919.11 1009,930.806 " fill="none" id="update jekyll &lt;i&gt;_config.yml&lt;/i&gt;-Start the blog with &lt;b&gt;Docker Compose&lt;/b&gt;" style="stroke: #A80036; stroke-width: 1.0;"/><polygon fill="#A80036" points="1009,935.974,1013,926.974,1009,930.974,1005,926.974,1009,935.974" style="stroke: #A80036; stroke-width: 1.0;"/><!--link Start the blog with <b>Docker Compose</b> to commit changes--><path d="M1009,970.057 C1009,980.821 1009,995.11 1009,1006.806 " fill="none" id="Start the blog with &lt;b&gt;Docker Compose&lt;/b&gt;-commit changes" style="stroke: #A80036; stroke-width: 1.0;"/><polygon fill="#A80036" points="1009,1011.974,1013,1002.974,1009,1006.974,1005,1002.974,1009,1011.974" style="stroke: #A80036; stroke-width: 1.0;"/><!--link commit changes to end--><path d="M1009,1046.003 C1009,1060.6558 1009,1082.1613 1009,1096.3665 " fill="none" id="commit changes-end" style="stroke: #A80036; stroke-width: 1.0;"/><polygon fill="#A80036" points="1009,1101.6044,1013,1092.6044,1009,1096.6044,1005,1092.6044,1009,1101.6044" style="stroke: #A80036; stroke-width: 1.0;"/><text fill="#000000" font-family="sans-serif" font-size="11" lengthAdjust="spacingAndGlyphs" textLength="88" x="1010" y="1077.7104">Ending process</text><!--
@startuml


(*) - -> "Check What You Need"
if "need automatic build" then
  partition "Travis-ci.org" {
    - ->[true] "configure <i>.travis.yml</i>"
      if "need complex build" then
        partition "Configure external Services" {
        - ->[true] "with deployment to docker etc."
        - -> ===B1===
        - -> "prepare heroku create a new application"
        - -> ===B2===
        ===B1=== - -> "prepare hub.docker.com to\ncreate a new repository"
        - -> ===B2===
        ===B1=== - -> "Configure slack for notifications"
        - -> ===B2===            
        - -> "set travisci secrets"
        }
        -right-> "<b>Build process defined!</b>"
      else
        ->[false] "only generate the blog"
        - -> "remove the stage structure from <i>.travis.yml</i>"
        -right-> "<b>Build process defined!</b>"
      endif
  }    
else
  ->[false] "remove travisci specific files"
endif

- ->"<b>Build process defined!</b>"
- ->"update jekyll <i>_config.yml</i>"
- ->"Start the blog with <b>Docker Compose</b>"
- ->"commit changes"
- ->[Ending process] (*)


@enduml

PlantUML version 1.2017.15(Mon Jul 03 16:45:34 UTC 2017)
(GPL source distribution)
Java Runtime: OpenJDK Runtime Environment
JVM: OpenJDK 64-Bit Server VM
Java Version: 1.8.0_141-8u141-b15-3~14.04-b15
Operating System: Linux
OS Version: 4.4.0-93-generic
Default Encoding: UTF-8
Language: en
Country: US
--></g></svg>