<?xml version="1.0" encoding="UTF-8" standalone="no"?><svg xmlns="http://www.w3.org/2000/svg" xmlns:xlink="http://www.w3.org/1999/xlink" contentScriptType="application/ecmascript" contentStyleType="text/css" height="553px" preserveAspectRatio="none" style="width:706px;height:553px;" version="1.1" viewBox="0 0 706 553" width="706px" zoomAndPan="magnify"><defs><filter height="300%" id="f1pjfdiccsq4uq" width="300%" x="-1" y="-1"><feGaussianBlur result="blurOut" stdDeviation="2.0"/><feColorMatrix in="blurOut" result="blurOut2" type="matrix" values="0 0 0 0 0 0 0 0 0 0 0 0 0 0 0 0 0 0 .4 0"/><feOffset dx="4.0" dy="4.0" in="blurOut2" result="blurOut3"/><feBlend in="SourceGraphic" in2="blurOut3" mode="normal"/></filter></defs><g><line style="stroke: #A80036; stroke-width: 1.0; stroke-dasharray: 5.0,5.0;" x1="26" x2="26" y1="86.2969" y2="465.7578"/><line style="stroke: #A80036; stroke-width: 1.0; stroke-dasharray: 5.0,5.0;" x1="160.5" x2="160.5" y1="86.2969" y2="465.7578"/><line style="stroke: #A80036; stroke-width: 1.0; stroke-dasharray: 5.0,5.0;" x1="292" x2="292" y1="86.2969" y2="465.7578"/><line style="stroke: #A80036; stroke-width: 1.0; stroke-dasharray: 5.0,5.0;" x1="550" x2="550" y1="86.2969" y2="465.7578"/><line style="stroke: #A80036; stroke-width: 1.0; stroke-dasharray: 5.0,5.0;" x1="616" x2="616" y1="86.2969" y2="465.7578"/><line style="stroke: #A80036; stroke-width: 1.0; stroke-dasharray: 5.0,5.0;" x1="673" x2="673" y1="86.2969" y2="465.7578"/><text fill="#000000" font-family="sans-serif" font-size="14" lengthAdjust="spacingAndGlyphs" textLength="31" x="8" y="82.9951">user</text><ellipse cx="26.5" cy="13" fill="#FEFECE" filter="url(#f1pjfdiccsq4uq)" rx="8" ry="8" style="stroke: #A80036; stroke-width: 2.0;"/><path d="M26.5,21 L26.5,48 M13.5,29 L39.5,29 M26.5,48 L13.5,63 M26.5,48 L39.5,63 " fill="#FEFECE" filter="url(#f1pjfdiccsq4uq)" style="stroke: #A80036; stroke-width: 2.0;"/><text fill="#000000" font-family="sans-serif" font-size="14" lengthAdjust="spacingAndGlyphs" textLength="31" x="8" y="477.7529">user</text><ellipse cx="26.5" cy="491.0547" fill="#FEFECE" filter="url(#f1pjfdiccsq4uq)" rx="8" ry="8" style="stroke: #A80036; stroke-width: 2.0;"/><path d="M26.5,499.0547 L26.5,526.0547 M13.5,507.0547 L39.5,507.0547 M26.5,526.0547 L13.5,541.0547 M26.5,526.0547 L39.5,541.0547 " fill="#FEFECE" filter="url(#f1pjfdiccsq4uq)" style="stroke: #A80036; stroke-width: 2.0;"/><text fill="#000000" font-family="sans-serif" font-size="14" lengthAdjust="spacingAndGlyphs" textLength="44" x="135.5" y="82.9951">github</text><path d="M142.5,34 C142.5,24 160.5,24 160.5,24 C160.5,24 178.5,24 178.5,34 L178.5,60 C178.5,70 160.5,70 160.5,70 C160.5,70 142.5,70 142.5,60 L142.5,34 " fill="#FEFECE" filter="url(#f1pjfdiccsq4uq)" style="stroke: #000000; stroke-width: 1.5;"/><path d="M142.5,34 C142.5,44 160.5,44 160.5,44 C160.5,44 178.5,44 178.5,34 " fill="none" style="stroke: #000000; stroke-width: 1.5;"/><text fill="#000000" font-family="sans-serif" font-size="14" lengthAdjust="spacingAndGlyphs" textLength="44" x="135.5" y="477.7529">github</text><path d="M142.5,491.0547 C142.5,481.0547 160.5,481.0547 160.5,481.0547 C160.5,481.0547 178.5,481.0547 178.5,491.0547 L178.5,517.0547 C178.5,527.0547 160.5,527.0547 160.5,527.0547 C160.5,527.0547 142.5,527.0547 142.5,517.0547 L142.5,491.0547 " fill="#FEFECE" filter="url(#f1pjfdiccsq4uq)" style="stroke: #000000; stroke-width: 1.5;"/><path d="M142.5,491.0547 C142.5,501.0547 160.5,501.0547 160.5,501.0547 C160.5,501.0547 178.5,501.0547 178.5,491.0547 " fill="none" style="stroke: #000000; stroke-width: 1.5;"/><text fill="#000000" font-family="sans-serif" font-size="14" lengthAdjust="spacingAndGlyphs" textLength="47" x="266" y="82.9951">travisci</text><ellipse cx="292.5" cy="54" fill="#FEFECE" filter="url(#f1pjfdiccsq4uq)" rx="12" ry="12" style="stroke: #A80036; stroke-width: 2.0;"/><polygon fill="#A80036" points="288.5,42,294.5,37,292.5,42,294.5,47,288.5,42" style="stroke: #A80036; stroke-width: 1.0;"/><text fill="#000000" font-family="sans-serif" font-size="14" lengthAdjust="spacingAndGlyphs" textLength="47" x="266" y="477.7529">travisci</text><ellipse cx="292.5" cy="497.0547" fill="#FEFECE" filter="url(#f1pjfdiccsq4uq)" rx="12" ry="12" style="stroke: #A80036; stroke-width: 2.0;"/><polygon fill="#A80036" points="288.5,485.0547,294.5,480.0547,292.5,485.0547,294.5,490.0547,288.5,485.0547" style="stroke: #A80036; stroke-width: 1.0;"/><rect fill="#FEFECE" filter="url(#f1pjfdiccsq4uq)" height="30.2969" style="stroke: #A80036; stroke-width: 1.5;" width="63" x="519" y="47"/><rect fill="#FEFECE" filter="url(#f1pjfdiccsq4uq)" height="30.2969" style="stroke: #A80036; stroke-width: 1.5;" width="63" x="515" y="51"/><text fill="#000000" font-family="sans-serif" font-size="14" lengthAdjust="spacingAndGlyphs" textLength="49" x="522" y="70.9951">heroku</text><rect fill="#FEFECE" filter="url(#f1pjfdiccsq4uq)" height="30.2969" style="stroke: #A80036; stroke-width: 1.5;" width="63" x="519" y="464.7578"/><rect fill="#FEFECE" filter="url(#f1pjfdiccsq4uq)" height="30.2969" style="stroke: #A80036; stroke-width: 1.5;" width="63" x="515" y="468.7578"/><text fill="#000000" font-family="sans-serif" font-size="14" lengthAdjust="spacingAndGlyphs" textLength="49" x="522" y="488.7529">heroku</text><text fill="#000000" font-family="sans-serif" font-size="14" lengthAdjust="spacingAndGlyphs" textLength="35" x="596" y="82.9951">slack</text><ellipse cx="616.5" cy="54" fill="#FEFECE" filter="url(#f1pjfdiccsq4uq)" rx="12" ry="12" style="stroke: #A80036; stroke-width: 2.0;"/><line style="stroke: #A80036; stroke-width: 2.0;" x1="604.5" x2="628.5" y1="68" y2="68"/><text fill="#000000" font-family="sans-serif" font-size="14" lengthAdjust="spacingAndGlyphs" textLength="35" x="596" y="477.7529">slack</text><ellipse cx="616.5" cy="497.0547" fill="#FEFECE" filter="url(#f1pjfdiccsq4uq)" rx="12" ry="12" style="stroke: #A80036; stroke-width: 2.0;"/><line style="stroke: #A80036; stroke-width: 2.0;" x1="604.5" x2="628.5" y1="511.0547" y2="511.0547"/><text fill="#000000" font-family="sans-serif" font-size="14" lengthAdjust="spacingAndGlyphs" textLength="47" x="647" y="82.9951">keenio</text><path d="M655.5,34 C655.5,24 673.5,24 673.5,24 C673.5,24 691.5,24 691.5,34 L691.5,60 C691.5,70 673.5,70 673.5,70 C673.5,70 655.5,70 655.5,60 L655.5,34 " fill="#FEFECE" filter="url(#f1pjfdiccsq4uq)" style="stroke: #000000; stroke-width: 1.5;"/><path d="M655.5,34 C655.5,44 673.5,44 673.5,44 C673.5,44 691.5,44 691.5,34 " fill="none" style="stroke: #000000; stroke-width: 1.5;"/><text fill="#000000" font-family="sans-serif" font-size="14" lengthAdjust="spacingAndGlyphs" textLength="47" x="647" y="477.7529">keenio</text><path d="M655.5,491.0547 C655.5,481.0547 673.5,481.0547 673.5,481.0547 C673.5,481.0547 691.5,481.0547 691.5,491.0547 L691.5,517.0547 C691.5,527.0547 673.5,527.0547 673.5,527.0547 C673.5,527.0547 655.5,527.0547 655.5,517.0547 L655.5,491.0547 " fill="#FEFECE" filter="url(#f1pjfdiccsq4uq)" style="stroke: #000000; stroke-width: 1.5;"/><path d="M655.5,491.0547 C655.5,501.0547 673.5,501.0547 673.5,501.0547 C673.5,501.0547 691.5,501.0547 691.5,491.0547 " fill="none" style="stroke: #000000; stroke-width: 1.5;"/><polygon fill="#A80036" points="148.5,113.2969,158.5,117.2969,148.5,121.2969,152.5,117.2969" style="stroke: #A80036; stroke-width: 1.0;"/><line style="stroke: #A80036; stroke-width: 1.0;" x1="26.5" x2="154.5" y1="117.2969" y2="117.2969"/><text fill="#000000" font-family="sans-serif" font-size="13" lengthAdjust="spacingAndGlyphs" textLength="110" x="33.5" y="112.3638">commit to github</text><polygon fill="#A80036" points="661.5,142.4297,671.5,146.4297,661.5,150.4297,665.5,146.4297" style="stroke: #A80036; stroke-width: 1.0;"/><line style="stroke: #A80036; stroke-width: 1.0;" x1="160.5" x2="667.5" y1="146.4297" y2="146.4297"/><text fill="#000000" font-family="sans-serif" font-size="13" lengthAdjust="spacingAndGlyphs" textLength="140" x="167.5" y="141.4966">notify commit metrics</text><polygon fill="#A80036" points="280.5,171.5625,290.5,175.5625,280.5,179.5625,284.5,175.5625" style="stroke: #A80036; stroke-width: 1.0;"/><line style="stroke: #A80036; stroke-width: 1.0;" x1="160.5" x2="286.5" y1="175.5625" y2="175.5625"/><text fill="#000000" font-family="sans-serif" font-size="13" lengthAdjust="spacingAndGlyphs" textLength="108" x="167.5" y="170.6294">build the commit</text><line style="stroke: #A80036; stroke-width: 1.0;" x1="292.5" x2="334.5" y1="204.8281" y2="204.8281"/><line style="stroke: #A80036; stroke-width: 1.0;" x1="334.5" x2="334.5" y1="204.8281" y2="217.8281"/><line style="stroke: #A80036; stroke-width: 1.0;" x1="293.5" x2="334.5" y1="217.8281" y2="217.8281"/><polygon fill="#A80036" points="303.5,213.8281,293.5,217.8281,303.5,221.8281,299.5,217.8281" style="stroke: #A80036; stroke-width: 1.0;"/><text fill="#000000" font-family="sans-serif" font-size="13" lengthAdjust="spacingAndGlyphs" textLength="173" x="299.5" y="199.7622">test the generated content</text><line style="stroke: #A80036; stroke-width: 1.0;" x1="292.5" x2="334.5" y1="246.9609" y2="246.9609"/><line style="stroke: #A80036; stroke-width: 1.0;" x1="334.5" x2="334.5" y1="246.9609" y2="259.9609"/><line style="stroke: #A80036; stroke-width: 1.0;" x1="293.5" x2="334.5" y1="259.9609" y2="259.9609"/><polygon fill="#A80036" points="303.5,255.9609,293.5,259.9609,303.5,263.9609,299.5,259.9609" style="stroke: #A80036; stroke-width: 1.0;"/><text fill="#000000" font-family="sans-serif" font-size="13" lengthAdjust="spacingAndGlyphs" textLength="233" x="299.5" y="241.895">Temp deployment branch for heroku</text><polygon fill="#A80036" points="538.5,284.9609,548.5,288.9609,538.5,292.9609,542.5,288.9609" style="stroke: #A80036; stroke-width: 1.0;"/><line style="stroke: #A80036; stroke-width: 1.0;" x1="292.5" x2="544.5" y1="288.9609" y2="288.9609"/><text fill="#000000" font-family="sans-serif" font-size="13" lengthAdjust="spacingAndGlyphs" textLength="234" x="299.5" y="284.0278">deploy the static content as php app</text><line style="stroke: #A80036; stroke-width: 1.0;" x1="292.5" x2="334.5" y1="318.2266" y2="318.2266"/><line style="stroke: #A80036; stroke-width: 1.0;" x1="334.5" x2="334.5" y1="318.2266" y2="331.2266"/><line style="stroke: #A80036; stroke-width: 1.0;" x1="293.5" x2="334.5" y1="331.2266" y2="331.2266"/><polygon fill="#A80036" points="303.5,327.2266,293.5,331.2266,303.5,335.2266,299.5,331.2266" style="stroke: #A80036; stroke-width: 1.0;"/><text fill="#000000" font-family="sans-serif" font-size="13" lengthAdjust="spacingAndGlyphs" textLength="172" x="299.5" y="313.1606">switch back to build branch</text><polygon fill="#A80036" points="538.5,356.2266,548.5,360.2266,538.5,364.2266,542.5,360.2266" style="stroke: #A80036; stroke-width: 1.0;"/><line style="stroke: #A80036; stroke-width: 1.0;" x1="292.5" x2="544.5" y1="360.2266" y2="360.2266"/><text fill="#000000" font-family="sans-serif" font-size="13" lengthAdjust="spacingAndGlyphs" textLength="149" x="299.5" y="355.2935">execute selenium tests</text><polygon fill="#A80036" points="604.5,385.3594,614.5,389.3594,604.5,393.3594,608.5,389.3594" style="stroke: #A80036; stroke-width: 1.0;"/><line style="stroke: #A80036; stroke-width: 1.0;" x1="292.5" x2="610.5" y1="389.3594" y2="389.3594"/><text fill="#000000" font-family="sans-serif" font-size="13" lengthAdjust="spacingAndGlyphs" textLength="106" x="299.5" y="384.4263">notify build state</text><polygon fill="#A80036" points="661.5,414.4922,671.5,418.4922,661.5,422.4922,665.5,418.4922" style="stroke: #A80036; stroke-width: 1.0;"/><line style="stroke: #A80036; stroke-width: 1.0;" x1="292.5" x2="667.5" y1="418.4922" y2="418.4922"/><text fill="#000000" font-family="sans-serif" font-size="13" lengthAdjust="spacingAndGlyphs" textLength="121" x="299.5" y="413.5591">notify build metrics</text><polygon fill="#A80036" points="37.5,443.625,27.5,447.625,37.5,451.625,33.5,447.625" style="stroke: #A80036; stroke-width: 1.0;"/><line style="stroke: #A80036; stroke-width: 1.0;" x1="31.5" x2="615.5" y1="447.625" y2="447.625"/><text fill="#000000" font-family="sans-serif" font-size="13" lengthAdjust="spacingAndGlyphs" textLength="67" x="43.5" y="442.6919">notify user</text><!--
@startuml

actor user
database github
control travisci
collections heroku
entity slack
database keenio

user -> github : commit to github
github -> keenio : notify commit metrics
github -> travisci : build the commit
travisci -> travisci : test the generated content
travisci -> travisci : Temp deployment branch for heroku
travisci -> heroku : deploy the static content as php app
travisci -> travisci : switch back to build branch
travisci -> heroku : execute selenium tests
travisci -> slack : notify build state
travisci -> keenio : notify build metrics
slack -> user :  notify user

@enduml

PlantUML version 1.2017.15(Mon Jul 03 16:45:34 UTC 2017)
(GPL source distribution)
Java Runtime: OpenJDK Runtime Environment
JVM: OpenJDK 64-Bit Server VM
Java Version: 1.8.0_141-8u141-b15-3~14.04-b15
Operating System: Linux
OS Version: 4.4.0-93-generic
Default Encoding: UTF-8
Language: en
Country: US
--></g></svg>