<?xml version="1.0" encoding="UTF-8" standalone="no"?><svg xmlns="http://www.w3.org/2000/svg" xmlns:xlink="http://www.w3.org/1999/xlink" contentScriptType="application/ecmascript" contentStyleType="text/css" height="558px" preserveAspectRatio="none" style="width:919px;height:558px;" version="1.1" viewBox="0 0 919 558" width="919px" zoomAndPan="magnify"><defs><filter height="300%" id="fh5hv3tiato5a" width="300%" x="-1" y="-1"><feGaussianBlur result="blurOut" stdDeviation="2.0"/><feColorMatrix in="blurOut" result="blurOut2" type="matrix" values="0 0 0 0 0 0 0 0 0 0 0 0 0 0 0 0 0 0 .4 0"/><feOffset dx="4.0" dy="4.0" in="blurOut2" result="blurOut3"/><feBlend in="SourceGraphic" in2="blurOut3" mode="normal"/></filter></defs><g><rect fill="#90EE90" height="543.9219" style="stroke: #A80036; stroke-width: 1.0;" width="304" x="157" y="4"/><text fill="#000000" font-family="sans-serif" font-size="13" font-weight="bold" lengthAdjust="spacingAndGlyphs" textLength="124" x="247" y="16.0669">GitHub Branches</text><rect fill="#ADD8E6" height="543.9219" style="stroke: #A80036; stroke-width: 1.0;" width="345" x="494" y="4"/><text fill="#000000" font-family="sans-serif" font-size="13" font-weight="bold" lengthAdjust="spacingAndGlyphs" textLength="94" x="619.5" y="16.0669">Presentation</text><rect fill="#FFFFFF" filter="url(#fh5hv3tiato5a)" height="356.3281" style="stroke: #A80036; stroke-width: 1.0;" width="10" x="183" y="96.2969"/><rect fill="#FFFFFF" filter="url(#fh5hv3tiato5a)" height="322.3281" style="stroke: #A80036; stroke-width: 1.0;" width="10" x="268.5" y="130.2969"/><rect fill="#FFFFFF" filter="url(#fh5hv3tiato5a)" height="137.6641" style="stroke: #A80036; stroke-width: 1.0;" width="10" x="424.5" y="164.2969"/><line style="stroke: #A80036; stroke-width: 1.0;" x1="122" x2="122" y1="86.2969" y2="96.2969"/><line style="stroke: #A80036; stroke-width: 1.0; stroke-dasharray: 1.0,4.0;" x1="122" x2="122" y1="96.2969" y2="124.2969"/><line style="stroke: #A80036; stroke-width: 1.0;" x1="122" x2="122" y1="124.2969" y2="461.625"/><line style="stroke: #A80036; stroke-width: 1.0;" x1="188" x2="188" y1="86.2969" y2="96.2969"/><line style="stroke: #A80036; stroke-width: 1.0; stroke-dasharray: 1.0,4.0;" x1="188" x2="188" y1="96.2969" y2="124.2969"/><line style="stroke: #A80036; stroke-width: 1.0;" x1="188" x2="188" y1="124.2969" y2="461.625"/><line style="stroke: #A80036; stroke-width: 1.0;" x1="273" x2="273" y1="86.2969" y2="96.2969"/><line style="stroke: #A80036; stroke-width: 1.0; stroke-dasharray: 1.0,4.0;" x1="273" x2="273" y1="96.2969" y2="124.2969"/><line style="stroke: #A80036; stroke-width: 1.0;" x1="273" x2="273" y1="124.2969" y2="461.625"/><line style="stroke: #A80036; stroke-width: 1.0;" x1="429" x2="429" y1="86.2969" y2="96.2969"/><line style="stroke: #A80036; stroke-width: 1.0; stroke-dasharray: 1.0,4.0;" x1="429" x2="429" y1="96.2969" y2="124.2969"/><line style="stroke: #A80036; stroke-width: 1.0;" x1="429" x2="429" y1="124.2969" y2="461.625"/><line style="stroke: #A80036; stroke-width: 1.0;" x1="553" x2="553" y1="86.2969" y2="96.2969"/><line style="stroke: #A80036; stroke-width: 1.0; stroke-dasharray: 1.0,4.0;" x1="553" x2="553" y1="96.2969" y2="124.2969"/><line style="stroke: #A80036; stroke-width: 1.0;" x1="553" x2="553" y1="124.2969" y2="461.625"/><line style="stroke: #A80036; stroke-width: 1.0;" x1="659" x2="659" y1="86.2969" y2="96.2969"/><line style="stroke: #A80036; stroke-width: 1.0; stroke-dasharray: 1.0,4.0;" x1="659" x2="659" y1="96.2969" y2="124.2969"/><line style="stroke: #A80036; stroke-width: 1.0;" x1="659" x2="659" y1="124.2969" y2="461.625"/><line style="stroke: #A80036; stroke-width: 1.0;" x1="772" x2="772" y1="86.2969" y2="96.2969"/><line style="stroke: #A80036; stroke-width: 1.0; stroke-dasharray: 1.0,4.0;" x1="772" x2="772" y1="96.2969" y2="124.2969"/><line style="stroke: #A80036; stroke-width: 1.0;" x1="772" x2="772" y1="124.2969" y2="461.625"/><text fill="#000000" font-family="sans-serif" font-size="14" lengthAdjust="spacingAndGlyphs" textLength="31" x="104" y="82.9951">user</text><ellipse cx="122.5" cy="13" fill="#FEFECE" filter="url(#fh5hv3tiato5a)" rx="8" ry="8" style="stroke: #A80036; stroke-width: 2.0;"/><path d="M122.5,21 L122.5,48 M109.5,29 L135.5,29 M122.5,48 L109.5,63 M122.5,48 L135.5,63 " fill="#FEFECE" filter="url(#fh5hv3tiato5a)" style="stroke: #A80036; stroke-width: 2.0;"/><text fill="#000000" font-family="sans-serif" font-size="14" lengthAdjust="spacingAndGlyphs" textLength="31" x="104" y="473.6201">user</text><ellipse cx="122.5" cy="486.9219" fill="#FEFECE" filter="url(#fh5hv3tiato5a)" rx="8" ry="8" style="stroke: #A80036; stroke-width: 2.0;"/><path d="M122.5,494.9219 L122.5,521.9219 M109.5,502.9219 L135.5,502.9219 M122.5,521.9219 L109.5,536.9219 M122.5,521.9219 L135.5,536.9219 " fill="#FEFECE" filter="url(#fh5hv3tiato5a)" style="stroke: #A80036; stroke-width: 2.0;"/><text fill="#000000" font-family="sans-serif" font-size="14" lengthAdjust="spacingAndGlyphs" textLength="48" x="161" y="82.9951">master</text><path d="M170,34 C170,24 188,24 188,24 C188,24 206,24 206,34 L206,60 C206,70 188,70 188,70 C188,70 170,70 170,60 L170,34 " fill="#FEFECE" filter="url(#fh5hv3tiato5a)" style="stroke: #000000; stroke-width: 1.5;"/><path d="M170,34 C170,44 188,44 188,44 C188,44 206,44 206,34 " fill="none" style="stroke: #000000; stroke-width: 1.5;"/><text fill="#000000" font-family="sans-serif" font-size="14" lengthAdjust="spacingAndGlyphs" textLength="48" x="161" y="473.6201">master</text><path d="M170,486.9219 C170,476.9219 188,476.9219 188,476.9219 C188,476.9219 206,476.9219 206,486.9219 L206,512.9219 C206,522.9219 188,522.9219 188,522.9219 C188,522.9219 170,522.9219 170,512.9219 L170,486.9219 " fill="#FEFECE" filter="url(#fh5hv3tiato5a)" style="stroke: #000000; stroke-width: 1.5;"/><path d="M170,486.9219 C170,496.9219 188,496.9219 188,496.9219 C188,496.9219 206,496.9219 206,486.9219 " fill="none" style="stroke: #000000; stroke-width: 1.5;"/><text fill="#000000" font-family="sans-serif" font-size="14" lengthAdjust="spacingAndGlyphs" textLength="91" x="225" y="82.9951">development</text><path d="M255.5,34 C255.5,24 273.5,24 273.5,24 C273.5,24 291.5,24 291.5,34 L291.5,60 C291.5,70 273.5,70 273.5,70 C273.5,70 255.5,70 255.5,60 L255.5,34 " fill="#FEFECE" filter="url(#fh5hv3tiato5a)" style="stroke: #000000; stroke-width: 1.5;"/><path d="M255.5,34 C255.5,44 273.5,44 273.5,44 C273.5,44 291.5,44 291.5,34 " fill="none" style="stroke: #000000; stroke-width: 1.5;"/><text fill="#000000" font-family="sans-serif" font-size="14" lengthAdjust="spacingAndGlyphs" textLength="91" x="225" y="473.6201">development</text><path d="M255.5,486.9219 C255.5,476.9219 273.5,476.9219 273.5,476.9219 C273.5,476.9219 291.5,476.9219 291.5,486.9219 L291.5,512.9219 C291.5,522.9219 273.5,522.9219 273.5,522.9219 C273.5,522.9219 255.5,522.9219 255.5,512.9219 L255.5,486.9219 " fill="#FEFECE" filter="url(#fh5hv3tiato5a)" style="stroke: #000000; stroke-width: 1.5;"/><path d="M255.5,486.9219 C255.5,496.9219 273.5,496.9219 273.5,496.9219 C273.5,496.9219 291.5,496.9219 291.5,486.9219 " fill="none" style="stroke: #000000; stroke-width: 1.5;"/><text fill="#000000" font-family="sans-serif" font-size="14" lengthAdjust="spacingAndGlyphs" textLength="49" x="402" y="82.9951">feature</text><path d="M411.5,34 C411.5,24 429.5,24 429.5,24 C429.5,24 447.5,24 447.5,34 L447.5,60 C447.5,70 429.5,70 429.5,70 C429.5,70 411.5,70 411.5,60 L411.5,34 " fill="#FEFECE" filter="url(#fh5hv3tiato5a)" style="stroke: #000000; stroke-width: 1.5;"/><path d="M411.5,34 C411.5,44 429.5,44 429.5,44 C429.5,44 447.5,44 447.5,34 " fill="none" style="stroke: #000000; stroke-width: 1.5;"/><text fill="#000000" font-family="sans-serif" font-size="14" lengthAdjust="spacingAndGlyphs" textLength="49" x="402" y="473.6201">feature</text><path d="M411.5,486.9219 C411.5,476.9219 429.5,476.9219 429.5,476.9219 C429.5,476.9219 447.5,476.9219 447.5,486.9219 L447.5,512.9219 C447.5,522.9219 429.5,522.9219 429.5,522.9219 C429.5,522.9219 411.5,522.9219 411.5,512.9219 L411.5,486.9219 " fill="#FEFECE" filter="url(#fh5hv3tiato5a)" style="stroke: #000000; stroke-width: 1.5;"/><path d="M411.5,486.9219 C411.5,496.9219 429.5,496.9219 429.5,496.9219 C429.5,496.9219 447.5,496.9219 447.5,486.9219 " fill="none" style="stroke: #000000; stroke-width: 1.5;"/><rect fill="#FEFECE" filter="url(#fh5hv3tiato5a)" height="30.2969" style="stroke: #A80036; stroke-width: 1.5;" width="63" x="522" y="47"/><rect fill="#FEFECE" filter="url(#fh5hv3tiato5a)" height="30.2969" style="stroke: #A80036; stroke-width: 1.5;" width="63" x="518" y="51"/><text fill="#000000" font-family="sans-serif" font-size="14" lengthAdjust="spacingAndGlyphs" textLength="49" x="525" y="70.9951">heroku</text><rect fill="#FEFECE" filter="url(#fh5hv3tiato5a)" height="30.2969" style="stroke: #A80036; stroke-width: 1.5;" width="63" x="522" y="460.625"/><rect fill="#FEFECE" filter="url(#fh5hv3tiato5a)" height="30.2969" style="stroke: #A80036; stroke-width: 1.5;" width="63" x="518" y="464.625"/><text fill="#000000" font-family="sans-serif" font-size="14" lengthAdjust="spacingAndGlyphs" textLength="49" x="525" y="484.6201">heroku</text><text fill="#000000" font-family="sans-serif" font-size="14" lengthAdjust="spacingAndGlyphs" textLength="75" x="619" y="82.9951">dockerhub</text><path d="M641.5,34 C641.5,24 659.5,24 659.5,24 C659.5,24 677.5,24 677.5,34 L677.5,60 C677.5,70 659.5,70 659.5,70 C659.5,70 641.5,70 641.5,60 L641.5,34 " fill="#FEFECE" filter="url(#fh5hv3tiato5a)" style="stroke: #000000; stroke-width: 1.5;"/><path d="M641.5,34 C641.5,44 659.5,44 659.5,44 C659.5,44 677.5,44 677.5,34 " fill="none" style="stroke: #000000; stroke-width: 1.5;"/><text fill="#000000" font-family="sans-serif" font-size="14" lengthAdjust="spacingAndGlyphs" textLength="75" x="619" y="473.6201">dockerhub</text><path d="M641.5,486.9219 C641.5,476.9219 659.5,476.9219 659.5,476.9219 C659.5,476.9219 677.5,476.9219 677.5,486.9219 L677.5,512.9219 C677.5,522.9219 659.5,522.9219 659.5,522.9219 C659.5,522.9219 641.5,522.9219 641.5,512.9219 L641.5,486.9219 " fill="#FEFECE" filter="url(#fh5hv3tiato5a)" style="stroke: #000000; stroke-width: 1.5;"/><path d="M641.5,486.9219 C641.5,496.9219 659.5,496.9219 659.5,496.9219 C659.5,496.9219 677.5,496.9219 677.5,486.9219 " fill="none" style="stroke: #000000; stroke-width: 1.5;"/><text fill="#000000" font-family="sans-serif" font-size="14" lengthAdjust="spacingAndGlyphs" textLength="119" x="710" y="82.9951">github_gh_pages</text><path d="M754.5,34 C754.5,24 772.5,24 772.5,24 C772.5,24 790.5,24 790.5,34 L790.5,60 C790.5,70 772.5,70 772.5,70 C772.5,70 754.5,70 754.5,60 L754.5,34 " fill="#FEFECE" filter="url(#fh5hv3tiato5a)" style="stroke: #000000; stroke-width: 1.5;"/><path d="M754.5,34 C754.5,44 772.5,44 772.5,44 C772.5,44 790.5,44 790.5,34 " fill="none" style="stroke: #000000; stroke-width: 1.5;"/><text fill="#000000" font-family="sans-serif" font-size="14" lengthAdjust="spacingAndGlyphs" textLength="119" x="710" y="473.6201">github_gh_pages</text><path d="M754.5,486.9219 C754.5,476.9219 772.5,476.9219 772.5,476.9219 C772.5,476.9219 790.5,476.9219 790.5,486.9219 L790.5,512.9219 C790.5,522.9219 772.5,522.9219 772.5,522.9219 C772.5,522.9219 754.5,522.9219 754.5,512.9219 L754.5,486.9219 " fill="#FEFECE" filter="url(#fh5hv3tiato5a)" style="stroke: #000000; stroke-width: 1.5;"/><path d="M754.5,486.9219 C754.5,496.9219 772.5,496.9219 772.5,496.9219 C772.5,496.9219 790.5,496.9219 790.5,486.9219 " fill="none" style="stroke: #000000; stroke-width: 1.5;"/><rect fill="#FFFFFF" filter="url(#fh5hv3tiato5a)" height="356.3281" style="stroke: #A80036; stroke-width: 1.0;" width="10" x="183" y="96.2969"/><rect fill="#FFFFFF" filter="url(#fh5hv3tiato5a)" height="322.3281" style="stroke: #A80036; stroke-width: 1.0;" width="10" x="268.5" y="130.2969"/><rect fill="#FFFFFF" filter="url(#fh5hv3tiato5a)" height="137.6641" style="stroke: #A80036; stroke-width: 1.0;" width="10" x="424.5" y="164.2969"/><polygon fill="#A80036" points="256.5,126.2969,266.5,130.2969,256.5,134.2969,260.5,130.2969" style="stroke: #A80036; stroke-width: 1.0;"/><line style="stroke: #A80036; stroke-width: 1.0;" x1="193" x2="262.5" y1="130.2969" y2="130.2969"/><polygon fill="#A80036" points="412.5,160.2969,422.5,164.2969,412.5,168.2969,416.5,164.2969" style="stroke: #A80036; stroke-width: 1.0;"/><line style="stroke: #A80036; stroke-width: 1.0;" x1="278.5" x2="418.5" y1="164.2969" y2="164.2969"/><text fill="#000000" font-family="sans-serif" font-size="13" lengthAdjust="spacingAndGlyphs" textLength="127" x="285.5" y="159.3638">new Feature Branch</text><polygon fill="#FBFB77" filter="url(#fh5hv3tiato5a)" points="439,143.2969,439,168.2969,609,168.2969,609,153.2969,599,143.2969,439,143.2969" style="stroke: #A80036; stroke-width: 1.0;"/><line style="stroke: #A80036; stroke-width: 1.0;" x1="599" x2="599" y1="143.2969" y2="153.2969"/><line style="stroke: #A80036; stroke-width: 1.0;" x1="609" x2="599" y1="153.2969" y2="153.2969"/><text fill="#000000" font-family="sans-serif" font-size="13" lengthAdjust="spacingAndGlyphs" textLength="149" x="445" y="160.3638">Develop only in featues</text><polygon fill="#A80036" points="412.5,194.4297,422.5,198.4297,412.5,202.4297,416.5,198.4297" style="stroke: #A80036; stroke-width: 1.0;"/><line style="stroke: #A80036; stroke-width: 1.0;" x1="122.5" x2="418.5" y1="198.4297" y2="198.4297"/><text fill="#000000" font-family="sans-serif" font-size="13" lengthAdjust="spacingAndGlyphs" textLength="107" x="129.5" y="193.4966">commit changes</text><polygon fill="#A80036" points="541.5,243.6953,551.5,247.6953,541.5,251.6953,545.5,247.6953" style="stroke: #A80036; stroke-width: 1.0;"/><line style="stroke: #A80036; stroke-width: 1.0;" x1="434.5" x2="547.5" y1="247.6953" y2="247.6953"/><text fill="#000000" font-family="sans-serif" font-size="13" lengthAdjust="spacingAndGlyphs" textLength="95" x="441.5" y="242.7622">deploy commit</text><polygon fill="#FBFB77" filter="url(#fh5hv3tiato5a)" points="558,211.5625,558,266.5625,708,266.5625,708,221.5625,698,211.5625,558,211.5625" style="stroke: #A80036; stroke-width: 1.0;"/><line style="stroke: #A80036; stroke-width: 1.0;" x1="698" x2="698" y1="211.5625" y2="221.5625"/><line style="stroke: #A80036; stroke-width: 1.0;" x1="708" x2="698" y1="221.5625" y2="221.5625"/><text fill="#000000" font-family="sans-serif" font-size="13" lengthAdjust="spacingAndGlyphs" textLength="129" x="564" y="228.6294">use heroku for quick</text><text fill="#000000" font-family="sans-serif" font-size="13" lengthAdjust="spacingAndGlyphs" textLength="103" x="564" y="243.7622">feedback, of the</text><text fill="#000000" font-family="sans-serif" font-size="13" lengthAdjust="spacingAndGlyphs" textLength="96" x="564" y="258.895">current feature</text><polygon fill="#A80036" points="289.5,297.9609,279.5,301.9609,289.5,305.9609,285.5,301.9609" style="stroke: #A80036; stroke-width: 1.0;"/><line style="stroke: #A80036; stroke-width: 1.0;" x1="283.5" x2="428.5" y1="301.9609" y2="301.9609"/><text fill="#000000" font-family="sans-serif" font-size="13" lengthAdjust="spacingAndGlyphs" textLength="121" x="295.5" y="297.0278">reintegrate feature</text><polygon fill="#FBFB77" filter="url(#fh5hv3tiato5a)" points="8,280.9609,8,305.9609,260,305.9609,260,290.9609,250,280.9609,8,280.9609" style="stroke: #A80036; stroke-width: 1.0;"/><line style="stroke: #A80036; stroke-width: 1.0;" x1="250" x2="250" y1="280.9609" y2="290.9609"/><line style="stroke: #A80036; stroke-width: 1.0;" x1="260" x2="250" y1="290.9609" y2="290.9609"/><text fill="#000000" font-family="sans-serif" font-size="13" lengthAdjust="spacingAndGlyphs" textLength="231" x="14" y="298.0278">Merge the feature as GitPull request</text><polygon fill="#A80036" points="647.5,344.6602,657.5,348.6602,647.5,352.6602,651.5,348.6602" style="stroke: #A80036; stroke-width: 1.0;"/><line style="stroke: #A80036; stroke-width: 1.0;" x1="278.5" x2="653.5" y1="348.6602" y2="348.6602"/><text fill="#000000" font-family="sans-serif" font-size="13" lengthAdjust="spacingAndGlyphs" textLength="65" x="285.5" y="343.7271">as version</text><text fill="#000000" font-family="sans-serif" font-size="13" font-weight="bold" lengthAdjust="spacingAndGlyphs" textLength="102" x="354.5" y="343.7271">:development</text><polygon fill="#FBFB77" filter="url(#fh5hv3tiato5a)" points="664,320.0938,664,360.0938,858,360.0938,858,330.0938,848,320.0938,664,320.0938" style="stroke: #A80036; stroke-width: 1.0;"/><line style="stroke: #A80036; stroke-width: 1.0;" x1="848" x2="848" y1="320.0938" y2="330.0938"/><line style="stroke: #A80036; stroke-width: 1.0;" x1="858" x2="848" y1="330.0938" y2="330.0938"/><text fill="#000000" font-family="sans-serif" font-size="13" lengthAdjust="spacingAndGlyphs" textLength="156" x="670" y="337.1606">deploy a nginx container</text><text fill="#000000" font-family="sans-serif" font-size="13" lengthAdjust="spacingAndGlyphs" textLength="173" x="670" y="352.2935">with the genearted content</text><polygon fill="#A80036" points="204,371.3594,194,375.3594,204,379.3594,200,375.3594" style="stroke: #A80036; stroke-width: 1.0;"/><line style="stroke: #A80036; stroke-width: 1.0;" x1="198" x2="267.5" y1="375.3594" y2="375.3594"/><polygon fill="#A80036" points="760.5,405.3594,770.5,409.3594,760.5,413.3594,764.5,409.3594" style="stroke: #A80036; stroke-width: 1.0;"/><line style="stroke: #A80036; stroke-width: 1.0;" x1="193" x2="766.5" y1="409.3594" y2="409.3594"/><text fill="#000000" font-family="sans-serif" font-size="13" lengthAdjust="spacingAndGlyphs" textLength="171" x="200" y="404.4263">deploy to production stage</text><polygon fill="#FBFB77" filter="url(#fh5hv3tiato5a)" points="777,388.3594,777,413.3594,897,413.3594,897,398.3594,887,388.3594,777,388.3594" style="stroke: #A80036; stroke-width: 1.0;"/><line style="stroke: #A80036; stroke-width: 1.0;" x1="887" x2="887" y1="388.3594" y2="398.3594"/><line style="stroke: #A80036; stroke-width: 1.0;" x1="897" x2="887" y1="398.3594" y2="398.3594"/><text fill="#000000" font-family="sans-serif" font-size="13" lengthAdjust="spacingAndGlyphs" textLength="99" x="783" y="405.4263">production view</text><polygon fill="#A80036" points="647.5,439.4922,657.5,443.4922,647.5,447.4922,651.5,443.4922" style="stroke: #A80036; stroke-width: 1.0;"/><line style="stroke: #A80036; stroke-width: 1.0;" x1="193" x2="653.5" y1="443.4922" y2="443.4922"/><text fill="#000000" font-family="sans-serif" font-size="13" lengthAdjust="spacingAndGlyphs" textLength="65" x="200" y="438.5591">as version</text><text fill="#000000" font-family="sans-serif" font-size="13" font-weight="bold" lengthAdjust="spacingAndGlyphs" textLength="47" x="269" y="438.5591">:latest</text><!--
@startuml

skinparam ParticipantPadding 20
skinparam BoxPadding 10

actor user

box "GitHub Branches" #LightGreen
  database "master" as github_master
  database "development" as github_development
  database "feature" as github_feature_branch
end box

box "Presentation" #LightBlue
  collections heroku
  database dockerhub
  database github_gh_pages
end box

activate github_master
...
github_master -> github_development
activate github_development
github_development -> github_feature_branch: new Feature Branch
activate github_feature_branch
note right
  Develop only in featues
end note
user -> github_feature_branch : commit changes
github_feature_branch -> heroku : deploy commit
note right
  use heroku for quick
  feedback, of the
  current feature  
end note
github_feature_branch -> github_development: reintegrate feature
note left
  Merge the feature as GitPull request
end note
deactivate github_feature_branch
github_development -> dockerhub : as version **:development**
note right
  deploy a nginx container
  with the genearted content
end note
github_development -> github_master
github_master -> github_gh_pages : deploy to production stage
note right
  production view
end note
github_master -> dockerhub : as version **:latest**


@enduml

PlantUML version 1.2017.15(Mon Jul 03 16:45:34 UTC 2017)
(GPL source distribution)
Java Runtime: OpenJDK Runtime Environment
JVM: OpenJDK 64-Bit Server VM
Java Version: 1.8.0_141-8u141-b15-3~14.04-b15
Operating System: Linux
OS Version: 4.4.0-93-generic
Default Encoding: UTF-8
Language: en
Country: US
--></g></svg>